<svg id="Layer_1" data-name="Layer 1" xmlns="http://www.w3.org/2000/svg" xmlns:xlink="http://www.w3.org/1999/xlink" viewBox="0 0 1242 2208"><defs><style>.cls-1,.cls-5,.cls-6,.cls-7,.cls-8,.cls-9{fill:none;}.cls-2{clip-path:url(#clip-path);}.cls-3{fill:#474749;}.cls-4{fill:#61995c;}.cls-5,.cls-6,.cls-7,.cls-8,.cls-9{stroke:#efefef;stroke-miterlimit:10;stroke-width:4px;}.cls-6{stroke-dasharray:31.24 31.24;}.cls-7{stroke-dasharray:29.57 29.57;}.cls-8{stroke-dasharray:30.96 30.96;}.cls-9{stroke-dasharray:29.26 29.26;}</style><clipPath id="clip-path"><rect class="cls-1" x="-2" width="1244" height="2208"/></clipPath></defs><title>mapBG</title><g class="cls-2"><rect class="cls-3" width="1242" height="2207"/><rect class="cls-4" x="-167.86" y="-148.14" width="828" height="1205" transform="translate(117.84 -46.21) rotate(14.07)"/><rect class="cls-4" x="802.08" y="-82.85" width="828" height="1380.08" transform="translate(184.09 -277.41) rotate(14.07)"/><rect class="cls-4" x="-495.8" y="1160.39" width="828" height="1205" transform="translate(426.1 72.77) rotate(14.07)"/><rect class="cls-4" x="452.86" y="1398.14" width="828" height="1205" transform="translate(512.36 -150.72) rotate(14.07)"/></g><line class="cls-5" x1="-2" y1="1088" x2="12.56" y2="1091.61"/><line class="cls-6" x1="42.88" y1="1099.13" x2="452.28" y2="1200.63"/><line class="cls-5" x1="467.44" y1="1204.39" x2="482" y2="1208"/><line class="cls-5" x1="577" y1="1148" x2="580.64" y2="1133.45"/><line class="cls-7" x1="587.81" y1="1104.76" x2="856.78" y2="28.9"/><line class="cls-5" x1="860.36" y1="14.55" x2="864"/><line class="cls-5" x1="642" y1="1248" x2="656.56" y2="1251.62"/><line class="cls-8" x1="686.6" y1="1259.08" x2="1212.42" y2="1389.65"/><line class="cls-5" x1="1227.44" y1="1393.38" x2="1242" y2="1397"/><line class="cls-5" x1="312" y1="2208" x2="315.63" y2="2193.45"/><line class="cls-9" x1="322.72" y1="2165.06" x2="531.82" y2="1327.74"/><line class="cls-5" x1="535.37" y1="1313.55" x2="539" y2="1299"/></svg>