<svg id="Layer_1" data-name="Layer 1" xmlns="http://www.w3.org/2000/svg" viewBox="0 0 395 278"><title>buidlings</title><path d="M313.5,63.69c14.06,8.44,28.13-8.44,42.19,0V35.56c-14.06-8.44-28.12,8.44-42.19,0v-7h-7v95.93l-21.09-4.52V77.75L201,7.44,116.63,77.75v42.19L18.18,141V260.56H177.56V191.42h51.57v69.14H383.82V141L313.5,126Zm-232,161.72H46.31V190.25H81.47Zm56.26,0H102.56V190.25h35.16ZM201,112.91a28.13,28.13,0,1,1,28.13-28.12A28.13,28.13,0,0,1,201,112.91Zm98.44,112.5H264.29V190.25h35.16Zm21.09-35.16h35.16v35.16H320.54Z"/><polygon points="203.05 66.91 199.53 66.91 199.53 84.49 199.53 88 203.05 88 220.63 88 220.63 84.49 203.05 84.49 203.05 66.91"/></svg>