<svg id="Layer_1" data-name="Layer 1" xmlns="http://www.w3.org/2000/svg" viewBox="0 0 317 595"><defs><style>.cls-1{fill:none;stroke:#000;stroke-miterlimit:10;}</style></defs><title>buidlings</title><path d="M290.75,95.68,163.49,22,35,95.68,33.8,496.32,45.37,503V462.84l11.57,6.7v40.19l11.57,6.7V476.23l11.57,6.7v40.19l11.57,6.7V489.63l11.57,6.7v40.19l11.57,6.7V503l11.57,6.7v40.19l11.57,6.7V516.42l11.57,6.7V563.3l11.57,6.7h2.44l11.57-6.7V523.12l11.57-6.7V556.6l11.57-6.7V509.72l11.57-6.7v40.19l11.57-6.7V496.32l11.57-6.7v40.19l11.57-6.7V482.93l11.57-6.7v40.19l11.57-6.7V469.53l11.57-6.7V503l11.57-6.7ZM57.55,456.14,46,449.44V436l11.57,6.7Zm0-26.79L46,422.65v-13.4L57.55,416Zm0-53L46,369.07v-13.4l11.57,6.7Zm0-26.79L46,342.88v-13.4l11.57,6.7Zm0-26.79L46,316.09V302.7l11.57,6.7Zm.61-53.58-11.57-6.7v-13.4l11.57,6.7Zm0-26.79-11.57-6.7v-13.4L58.16,229Zm0-79.76L46.59,156v-13.4l11.57,6.7Zm0-26.79-11.57-6.7v-13.4l11.57,6.7ZM80.68,442.74,69.12,436v-13.4l11.57,6.7Zm0-53-11.57-6.7v-13.4l11.57,6.7Zm0-53.58-11.57-6.7v-13.4l11.57,6.7Zm.61-80.37-11.57-6.7v-13.4l11.57,6.7Zm0-53-11.57-6.7v-13.4l11.57,6.7Zm0-26.79-11.57-6.7V156l11.57,6.7Zm22.53,306.88-11.57-6.7v-13.4l11.57,6.7Zm0-53-11.57-6.7v-13.4l11.57,6.7Zm.61-80.37-11.57-6.7v-13.4l11.57,6.7Zm0-26.79-11.57-6.7V302.7l11.57,6.7Zm0-79.76-11.57-6.7v-13.4l11.57,6.7Zm0-26.79-11.57-6.7v-13.4l11.57,6.7Zm0-53.58L92.86,156v-13.4l11.57,6.7ZM127,443.35l-11.57-6.7v-13.4L127,430Zm.61-53.58L116,383.07v-13.4l11.57,6.7Zm0-53.58L116,329.49v-13.4l11.57,6.7Zm0-26.79L116,302.7V289.3l11.57,6.7Zm0-53L116,249.72v-13.4l11.57,6.7Zm0-26.79L116,222.93v-13.4l11.57,6.7Zm.61-53.58-11.57-6.7V156l11.57,6.7ZM150.1,509.72,138.53,503v-13.4l11.57,6.7Zm.61-53L139.14,450v-13.4l11.57,6.7Zm0-26.79-11.57-6.7v-13.4l11.57,6.7Zm0-26.79-11.57-6.7v-13.4l11.57,6.7Zm0-53.58-11.57-6.7v-13.4l11.57,6.7Zm0-26.79-11.57-6.7V302.7l11.57,6.7Zm0-26.79-11.57-6.7v-13.4l11.57,6.7Zm0-26.18-11.57-6.7v-13.4l11.57,6.7Zm.61-53.58-11.57-6.7v-13.4l11.57,6.7Zm0-26.79-11.57-6.7v-13.4l11.57,6.7ZM174.45,176l11.57-6.7v13.4l-11.57,6.7Zm0,26.79,11.57-6.7v13.4l-11.57,6.7Zm.61,80.37,11.57-6.7v13.4L175.06,296Zm0,26.18,11.57-6.7v13.4l-11.57,6.7Zm0,53.58,11.57-6.7v13.4l-11.57,6.7Zm0,26.79,11.57-6.7v13.4l-11.57,6.7Zm0,26.79,11.57-6.7v13.4L175.06,430Zm0,53.58,11.57-6.7v13.4l-11.57,6.7Zm.61,39.58v-13.4l11.57-6.7V503ZM198.2,322.79l11.57-6.7v13.4l-11.57,6.7Zm.61,80.37,11.57-6.7v13.4l-11.57,6.7Zm0,26.79,11.57-6.7v13.4l-11.57,6.7Zm0,39.58v-13.4l11.57-6.7v13.4Zm22.53-320.28,11.57-6.7V156l-11.57,6.7Zm0,26.79,11.57-6.7v13.4l-11.57,6.7Zm0,26.79,11.57-6.7v13.4l-11.57,6.7Zm0,53,11.57-6.7v13.4l-11.57,6.7Zm0,80.37,11.57-6.7v13.4l-11.57,6.7Zm.61,67v-13.4l11.57-6.7v13.4Zm22.53-240.51L256,156v13.4L244.48,176Zm0,26.79,11.57-6.7v13.4l-11.57,6.7Zm0,79.76,11.57-6.7v13.4l-11.57,6.7Zm.61,53.58,11.57-6.7v13.4l-11.57,6.7Zm0,26.79,11.57-6.7v13.4L245.08,363Zm0,53.58,11.57-6.7v13.4l-11.57,6.7Zm0,66.37v-13.4l11.57-6.7v13.4Zm-82.2-319.06-95-54.8,95.6-54.8,94.38,54.8Zm104.73-28,11.57-6.7v13.4l-11.57,6.7Zm0,53.58,11.57-6.7v13.4l-11.57,6.7Zm0,26.79,11.57-6.7v13.4l-11.57,6.7Zm0,53,11.57-6.7v13.4l-11.57,6.7Zm0,26.79,11.57-6.7v13.4l-11,6.7Zm.61,53.58,11.57-6.7v13.4l-11.57,6.7Zm0,53.58,11.57-6.7v13.4l-11.57,6.7Zm0,39.58V416l11.57-6.7v13.4Z"/><polygon points="67.9 95.68 163.49 40.88 257.87 95.68 162.88 150.48 67.9 95.68"/><line class="cls-1" x1="163.49" y1="570" x2="290.75" y2="496.32"/><line class="cls-1" x1="163.49" y1="570" x2="33.8" y2="496.32"/></svg>