<svg id="Layer_1" data-name="Layer 1" xmlns="http://www.w3.org/2000/svg" viewBox="0 0 306 340"><title>buidlings</title><path d="M286.81,139.2H239.52V291.58h47.29V244.29H260.54A10.52,10.52,0,0,1,250,233.78v-21a10.52,10.52,0,0,1,10.51-10.51h26.27V191.75H260.54A10.52,10.52,0,0,1,250,181.24v-21a10.52,10.52,0,0,1,10.51-10.51h26.27Z"/><rect x="195.1" y="157.9" width="20.79" height="27.51"/><polygon points="287.42 134.29 264.9 108.02 235.13 108.02 259.12 134.29 287.42 134.29"/><rect x="183.91" y="274.68" width="22" height="16.55"/><path d="M234.61,291.58V139.2H77V291.58H98V275.82a5.25,5.25,0,0,1,5.25-5.25h0V229.68a15.7,15.7,0,0,1,10.51-27.43h84.07a15.7,15.7,0,0,1,10.51,27.43v40.88a5.25,5.25,0,0,1,5.25,5.25h0v15.76ZM124.27,181.24a10.52,10.52,0,0,1-10.51,10.51H98a10.52,10.52,0,0,1-10.51-10.51v-21A10.52,10.52,0,0,1,98,149.71h15.76a10.52,10.52,0,0,1,10.51,10.51Zm52.55,0a10.52,10.52,0,0,1-10.51,10.51h-21a10.52,10.52,0,0,1-10.51-10.51v-21a10.52,10.52,0,0,1,10.51-10.51h21a10.52,10.52,0,0,1,10.51,10.51Zm21,10.51a10.52,10.52,0,0,1-10.51-10.51v-21a10.52,10.52,0,0,1,10.51-10.51h15.76a10.52,10.52,0,0,1,10.51,10.51v21a10.52,10.52,0,0,1-10.51,10.51Z"/><rect x="256.49" y="157.42" width="29.87" height="27.51"/><path d="M71.72,134.29h182.5L155.79,26.48,57.36,134.29Zm84.07-73.56a31.53,31.53,0,1,1-31.53,31.53A31.53,31.53,0,0,1,155.79,60.73Z"/><rect x="141.68" y="157.9" width="27.72" height="27.51"/><circle cx="155.79" cy="92.25" r="25"/><rect x="95.19" y="157.9" width="20.79" height="27.51"/><rect x="184.3" y="233.78" width="13.09" height="36.78"/><polygon points="76.45 108.02 46.69 108.02 24.17 134.29 52.47 134.29 76.45 108.02"/><rect x="25.12" y="157.42" width="29.87" height="27.51"/><rect x="256.49" y="210.16" width="29.87" height="28"/><path d="M196,209H115.62c-2.9,0-7.12,4-7.12,8.85s4.22,8.85,7.12,8.85H196c2.9,0,7.12-4,7.12-8.85S198.87,209,196,209Z"/><polygon points="208.8 296.49 182.12 296.49 128.74 296.49 102.06 296.49 71.91 296.49 58.56 307 252.29 307 238.95 296.49 208.8 296.49"/><path d="M288.33,296.49H245.51L258.65,307h34.94v-5.25A5.26,5.26,0,0,0,288.33,296.49Z"/><path d="M18,301.75V307H52.94l13.14-10.51H23.25A5.26,5.26,0,0,0,18,301.75Z"/><rect x="114.61" y="233.78" width="12.93" height="36.78"/><polygon points="134.78 291.58 176.81 291.58 176.81 275.82 176.81 233.78 134.78 233.78 134.78 275.82 134.78 291.58"/><path d="M24.78,291.58H72.07V139.2H24.78v10.51H51a10.52,10.52,0,0,1,10.51,10.51v21A10.52,10.52,0,0,1,51,191.75H24.78v10.51H51a10.52,10.52,0,0,1,10.51,10.51v21A10.52,10.52,0,0,1,51,244.29H24.78Z"/><rect x="25.12" y="210.16" width="29.87" height="28"/><rect x="105.54" y="274.68" width="21.73" height="16.55"/></svg>